PathFileType	4	(X/Y/Z)	C:\Users\Basilio\Documents\Thesis Gigler\squatting_fais\c3dfiles\039\SLS_pre_front4\markers_experimental.trc
DataRate	CameraRate	NumFrames	NumMarkers	Units	OrigDataRate	OrigDataStartFrame	OrigNumFrames
200.000000	200.000000	4	63	mm	200.000000	999	1999
Frame#	Time	FHD			LBHD			RBHD			C7			T10			CLAV			LSHO			LUUPA			LMUPA			LDUPA			LLEP			LMEP			LRAD			LUL			LRFIN			RSHO			RUPA1			RMUPA			RDUPA			RLEP			RMEP			RRAD			RUL			RUFIN			LASI			RASI			USACR			LSACR			RSACR			LTHI1			LTHI2			LTHI3			LTHI4			LLFC			LMFC			LTIB1			LTIB2			LTIB3			LTIB4			LLMAL			LMMAL			LHEE			LMT1			LMT2			LMT5			RTHI			RTHI2			RTHI3			RTHI4			RLFC			RMFC			RTIB1			RTIB2			RTIB3			RTIB4			RLMAL			RMMAL			RHEE			RMT1			RMT2			RMT5			*61			*62			
		X1	Y1	Z1	X2	Y2	Z2	X3	Y3	Z3	X4	Y4	Z4	X5	Y5	Z5	X6	Y6	Z6	X7	Y7	Z7	X8	Y8	Z8	X9	Y9	Z9	X10	Y10	Z10	X11	Y11	Z11	X12	Y12	Z12	X13	Y13	Z13	X14	Y14	Z14	X15	Y15	Z15	X16	Y16	Z16	X17	Y17	Z17	X18	Y18	Z18	X19	Y19	Z19	X20	Y20	Z20	X21	Y21	Z21	X22	Y22	Z22	X23	Y23	Z23	X24	Y24	Z24	X25	Y25	Z25	X26	Y26	Z26	X27	Y27	Z27	X28	Y28	Z28	X29	Y29	Z29	X30	Y30	Z30	X31	Y31	Z31	X32	Y32	Z32	X33	Y33	Z33	X34	Y34	Z34	X35	Y35	Z35	X36	Y36	Z36	X37	Y37	Z37	X38	Y38	Z38	X39	Y39	Z39	X40	Y40	Z40	X41	Y41	Z41	X42	Y42	Z42	X43	Y43	Z43	X44	Y44	Z44	X45	Y45	Z45	X46	Y46	Z46	X47	Y47	Z47	X48	Y48	Z48	X49	Y49	Z49	X50	Y50	Z50	X51	Y51	Z51	X52	Y52	Z52	X53	Y53	Z53	X54	Y54	Z54	X55	Y55	Z55	X56	Y56	Z56	X57	Y57	Z57	X58	Y58	Z58	X59	Y59	Z59	X60	Y60	Z60	X61	Y61	Z61	X62	Y62	Z62	X63	Y63	Z63	

1000	4.995	-334.9689941406251	1661.92578125	-647.4291381835939	nan	nan	nan	-465.5123901367189	1638.265991210938	-625.3841552734376	-535.7794799804689	1467.650024414063	-703.4213256835939	-557.5586547851564	1158.118286132813	-724.0932006835939	nan	nan	nan	-466.550994873047	1487.986450195313	-857.5194091796877	-301.9486694335938	1464.85888671875	-972.9732666015627	-280.6623535156251	1498.926391601563	-942.1834716796877	-233.8071441650391	1479.77587890625	-974.788024902344	-168.4010772705078	1493.646728515625	-971.6992797851565	-157.0300598144532	1423.42236328125	-939.6804199218752	111.3443603515625	1546.571411132813	-906.2087402343752	106.1066818237305	1548.917846679688	-981.9896240234377	190.6013946533203	1587.59765625	-907.8143310546877	-416.8773803710939	1478.253540039063	-549.6239013671876	-244.2109680175782	1429.054443359375	-462.0799560546876	-222.4427642822266	1465.121215820313	-491.1965942382814	-176.3441925048828	1431.763916015625	-469.6974487304689	-115.9252319335938	1450.786254882813	-484.6763610839845	-107.5545501708985	1383.196899414063	-523.8794555664064	161.4639129638672	1518.341796875	-584.6851806640626	167.2712554931641	1508.685913085938	-509.2821044921876	247.784652709961	1557.13427734375	-581.3760375976564	-382.5845336914063	1023.549011230469	-862.4985961914065	-367.4745483398438	986.9755859375002	-641.9983520507814	-561.7437133789064	1011.009399414063	-739.9820556640626	-561.4887084960939	982.425964355469	-771.5379638671877	-556.8437500000001	974.3933105468752	-713.1085205078126	-235.6027069091797	843.9212036132815	-945.5633544921877	-151.7545166015625	836.0384521484377	-934.1431884765627	-134.0388793945313	875.9006347656252	-915.1321411132815	-119.7286148071289	783.6875610351565	-927.2173461914065	-11.50198936462403	727.1444702148439	-921.865905761719	14.85775089263916	719.5561523437501	-806.1719970703127	144.7073822021485	694.8644409179689	-889.7648925781252	149.1560974121094	624.8470458984376	-941.029968261719	174.6587371826172	654.8482055664064	-919.5526123046877	240.0084686279297	609.2631835937501	-882.152038574219	355.9719238281251	478.840545654297	-925.2419433593752	361.1328430175782	478.9519958496095	-839.2673950195315	363.9282226562501	385.2244262695314	-896.1624755859377	493.3930053710939	575.3717041015626	-846.1816406250002	489.6057434082032	578.2525024414064	-887.4837646484377	486.244598388672	537.6269531250001	-946.913757324219	-295.2690429687501	722.5403442382814	-591.7756347656251	-234.7375793457032	693.3439331054689	-590.4305419921876	-207.5795593261719	711.0020751953126	-594.6732788085939	-221.1582336425782	610.1113281250001	-603.0665893554689	-201.7538757324219	486.8792419433595	-635.1172485351564	-168.6560516357422	494.647674560547	-746.5141601562501	-225.738510131836	289.9773254394532	-686.5703125000001	-327.9476623535157	255.6784362792969	-683.8770141601564	-287.3397827148438	233.7217864990235	-689.8523559570314	-285.9563903808594	187.0537719726563	-728.7977905273439	-380.2421875000001	118.853141784668	-719.0072021484376	-345.7246704101563	139.550537109375	-800.782409667969	-452.3392028808595	103.833854675293	-773.7070312500002	-229.4187316894532	55.1256561279297	-780.6582641601565	-233.4515228271485	57.40892410278322	-734.4334716796876	-290.1518859863282	41.39521026611329	-684.4713134765626	nan	nan	nan	nan	nan	nan	
1001	5	-334.8016052246094	1661.280151367188	-647.2919311523439	nan	nan	nan	-465.3838806152345	1637.2451171875	-625.2107543945314	-535.4876098632814	1466.8896484375	-703.2966308593751	-557.4762573242189	1157.449096679688	-724.0250244140626	nan	nan	nan	-466.3106079101564	1487.32958984375	-857.3802490234377	-301.7800598144532	1464.422729492188	-972.8181762695315	-280.4135131835938	1498.286865234375	-942.0177001953127	-233.5847167968751	1479.121704101563	-974.7034301757815	-168.1184234619141	1492.826171875	-971.535339355469	-156.8727722167969	1422.677978515625	-939.5334472656252	111.6934280395508	1545.582763671875	-906.0334472656252	106.3350067138672	1548.109497070313	-981.856384277344	190.910400390625	1586.798095703125	-907.744812011719	-416.6702575683595	1477.521362304688	-549.5653686523439	-243.9468688964844	1428.171875	-462.0150451660157	-222.5415344238282	1464.1591796875	-491.251190185547	-176.1346282958985	1430.73974609375	-469.662567138672	-115.7873611450196	1449.855834960938	-484.4766235351564	-107.2564392089844	1382.494384765625	-523.9006958007814	161.5728149414063	1517.4814453125	-584.6184692382814	167.5335083007813	1507.73291015625	-509.1863098144532	247.7374267578126	1556.270751953125	-581.2357788085939	-382.5809936523438	1022.7607421875	-862.5356445312502	-367.3738098144532	986.4412231445315	-641.7713623046876	-561.7687377929689	1010.388305664063	-739.9099731445314	-561.5061645507814	981.580505371094	-771.344177246094	-556.7489013671876	973.6281738281252	-712.9406738281251	-235.579330444336	843.151550292969	-945.4988403320315	-151.9149780273438	835.3167114257815	-934.1046142578127	-133.9594268798828	875.2891845703127	-915.1767578125002	-119.7247467041016	783.0981445312502	-927.1408691406252	-11.55808162689209	726.5961303710939	-921.9497680664065	14.95220947265625	719.1553955078126	-806.0813598632815	144.727035522461	694.3669433593751	-889.7839965820315	149.1622924804688	624.2186889648439	-940.9534301757815	174.9588317871094	654.2752075195314	-919.4732666015627	240.1018066406251	608.9334106445314	-882.1348266601565	356.1401062011719	478.6029052734376	-925.2675781250002	361.4464111328126	478.526336669922	-839.021667480469	364.1091918945313	384.935516357422	-896.086364746094	493.6337280273439	575.1552124023439	-846.4312133789065	489.8536376953126	577.9622802734376	-887.7152099609377	486.2417297363282	537.1890258789064	-947.1380615234377	-295.0420227050782	722.1969604492189	-590.7717895507814	-234.6772003173829	692.6990966796876	-590.4617309570314	-207.3860626220704	710.6835327148439	-594.2689208984376	-220.7788238525391	609.8397827148439	-602.6830444335939	-201.3315582275391	486.6204833984376	-634.6953125000001	-168.2175903320313	494.3561096191407	-746.0769653320314	-225.4790039062501	289.7651367187501	-686.2160034179689	-327.8212280273438	255.5958099365235	-683.6077880859376	-287.1661987304688	233.6174316406251	-689.4783935546876	-285.8752441406251	186.9599761962891	-728.5502929687501	-380.3096313476563	118.7985000610352	-718.9078369140626	-345.6519165039063	139.6067352294922	-800.6542968750002	-452.369598388672	103.8663711547852	-773.6665649414065	-229.3870544433594	55.13845062255861	-780.6640625000002	-233.5246276855469	57.32195281982423	-734.4985961914064	-290.2044982910157	41.3140983581543	-684.4324340820314	nan	nan	nan	nan	nan	nan	
1002	5.005	-334.6428222656251	1660.648193359375	-647.0028076171876	nan	nan	nan	-465.1560668945314	1636.602294921875	-625.0701293945314	-535.2932739257814	1466.157836914063	-703.1975097656251	-557.3095092773439	1156.85595703125	-723.9656372070314	nan	nan	nan	-466.0377807617189	1486.670166015625	-857.2392578125002	-301.6168518066407	1463.70263671875	-972.7602539062502	-280.1016235351563	1497.593627929688	-941.8301391601565	-233.2968139648438	1478.416625976563	-974.549499511719	-167.9303283691407	1492.184936523438	-971.441589355469	-156.5594024658203	1421.884887695313	-939.579040527344	111.9030151367188	1544.837646484375	-905.970397949219	106.6606826782227	1547.417358398438	-981.7434082031252	191.3677673339844	1585.479858398438	-907.5820922851565	-416.3586425781251	1476.677978515625	-549.4484863281251	-243.4980468750001	1427.54296875	-461.6415100097657	-222.3666381835938	1463.353881835938	-491.0964660644532	-175.9204559326172	1429.93798828125	-469.3782348632814	-115.4526748657227	1449.017211914063	-484.4677734375001	-107.1057968139649	1381.740234375	-523.7687988281251	161.6851654052735	1516.690063476563	-584.5028076171876	167.7364044189453	1507.149536132813	-509.121551513672	247.8532257080079	1555.277099609375	-581.1036376953126	-382.4463806152344	1021.914245605469	-862.4832153320315	-367.3501281738282	985.8706054687502	-641.5979614257814	-561.8707885742189	1009.763549804688	-739.7441406250001	-561.5277099609376	980.979919433594	-771.209655761719	-556.8302612304689	973.1424560546877	-712.8853149414064	-235.5456848144532	842.375915527344	-945.3928222656252	-151.8397979736328	834.6823730468752	-934.0382080078127	-133.9288330078125	874.712829589844	-915.1043090820315	-119.6389999389649	782.4573974609377	-927.005065917969	-11.48916816711426	725.9080200195314	-921.6709594726565	15.0572156906128	718.6729125976564	-805.9655761718752	144.7859649658203	693.8752441406251	-889.7947998046877	149.2478942871094	623.7150878906251	-940.898864746094	175.0111236572266	653.8388671875001	-919.403015136719	240.2438659667969	608.6285400390626	-882.1741333007815	356.3076171875001	478.3099670410157	-925.167419433594	361.8578186035157	477.9582824707032	-838.5754394531252	364.3068542480469	384.5379943847657	-895.9780273437502	493.8741760253907	574.8203735351564	-846.5845336914065	490.0262145996095	577.6862182617189	-887.8977661132815	486.3010864257814	536.8491821289064	-947.3126220703127	-294.8555603027344	721.7244873046876	-590.3728027343751	-234.4810180664063	692.3139648437501	-590.0499877929689	-207.191146850586	710.3996582031251	-593.7942504882814	-220.3792266845704	609.3665161132814	-602.2604370117189	-200.7202758789063	485.9953002929689	-634.0729980468751	-167.8311614990235	494.0953063964845	-745.7413330078126	-225.3592071533204	289.8232116699219	-685.9075927734376	-327.6716613769532	255.4770050048829	-683.3258666992189	-287.0380249023438	233.4442901611329	-689.1991577148439	-285.6724853515626	186.6024169921875	-728.3000488281251	-380.2760314941407	118.7863845825196	-718.8125000000001	-345.6876220703126	139.6669616699219	-800.5691528320315	-452.3668212890626	103.9150466918946	-773.5896606445315	-229.3416442871094	55.03190231323244	-780.6692504882815	-233.5437011718751	57.31209182739259	-734.5276489257814	-290.1659240722657	41.17660522460938	-684.4282226562501	nan	nan	nan	nan	nan	nan	
1003	5.01	-334.4957275390626	1659.844848632813	-646.5751953125001	nan	nan	nan	-465.0599670410157	1636.1015625	-624.8107910156251	-535.1584472656251	1465.578979492188	-703.0238647460939	-557.2036743164064	1156.288452148438	-723.9340820312501	nan	nan	nan	-466.0941772460939	1486.045654296875	-856.9182128906252	-301.2941589355469	1463.002685546875	-972.643249511719	-279.7722778320313	1497.032348632813	-941.7678222656252	-233.0171661376954	1477.877563476563	-974.5186157226565	-167.6717529296875	1491.505126953125	-971.3569335937502	-156.3211822509766	1421.262817382813	-939.5858154296877	112.0630111694336	1544.430541992188	-906.0256958007815	106.9160842895508	1546.806274414063	-981.6643676757815	191.5041961669922	1585.203857421875	-907.578308105469	-416.3528747558595	1476.004272460938	-549.3015136718751	-243.6282653808594	1426.526123046875	-461.8446655273439	-221.8559112548829	1462.68505859375	-490.7968139648439	-175.8009643554688	1429.158569335938	-469.3442687988282	-115.2307510375977	1448.24169921875	-484.3648071289064	-106.9112091064453	1380.812866210938	-523.6578979492189	161.9510192871094	1515.890258789063	-584.3167724609376	167.9650115966797	1506.11181640625	-508.9224548339845	248.3385162353516	1554.6591796875	-580.9902954101564	-382.6190185546876	1021.12890625	-862.322937011719	-367.3591003417969	985.3059082031252	-641.6019287109376	-561.7709350585939	1009.106140136719	-739.6345214843751	-561.5897827148439	980.3609008789065	-771.0485839843752	-556.9340820312501	972.642517089844	-712.7488403320314	-235.678939819336	841.6240234375002	-945.2867431640627	-151.9288787841797	833.9416503906252	-934.001647949219	-134.0241851806641	874.1060180664065	-915.0174560546877	-119.6047439575196	781.6873168945315	-926.9559326171877	-11.53435039520264	725.2053222656251	-921.5471191406252	15.16272735595703	718.1102294921876	-805.8952636718752	144.8631439208985	693.5029296875001	-889.7791748046877	149.3755493164063	623.1782836914064	-940.8719482421877	174.9351043701172	653.5303955078126	-919.3726196289065	240.4120635986329	608.2119140625001	-882.1460571289065	356.4847412109376	477.9878845214845	-925.0479125976565	362.4586486816407	477.9097900390626	-837.4397583007815	364.5911560058594	384.1996459960939	-895.7571411132815	494.192596435547	574.4381713867189	-846.6522216796877	490.2148742675782	577.5148315429689	-888.0977172851565	486.2478332519532	536.4624633789064	-947.351501464844	-294.5821838378907	721.3405151367189	-590.9151000976564	-234.1025085449219	692.1136474609376	-589.4038085937501	-206.9315185546876	710.1107177734376	-593.4898071289064	-220.1357727050782	609.0000610351564	-601.9053955078126	-200.6600646972657	485.837127685547	-634.0474853515626	-167.301986694336	493.8168029785157	-745.3757934570314	-225.1730041503907	289.7484741210938	-685.7065429687501	-327.4989624023438	255.4920349121094	-683.0778808593751	-286.9042968750001	233.3202514648438	-688.9841918945314	-285.6290588378907	186.4903259277344	-728.1290893554689	-380.2731018066407	118.8178405761719	-718.7421264648439	-345.6902465820313	139.7689208984375	-800.4144287109377	-452.3936462402345	103.9749069213867	-773.5217895507815	-229.3453063964844	55.1000328063965	-780.646667480469	-233.5858764648438	57.20703887939455	-734.5654296875001	-290.1931457519532	41.19073867797852	-684.3685913085939	nan	nan	nan	nan	nan	nan	
